:SAMPLES-PER-SECOND 30
:FRAME-RANGE 1-1390
:FULLY-SPECIFIED
:DEGREES
522
root  -23.6629 36.4842 26.2018 173.788 8.47641 -177.477
RightUpLeg  -88.8594 -16.8583 59.7363
RightLeg  131.038 8.05191 -7.96477
RightFoot  -23.3416 -0.378751 -2.09985
RightToes  6.35937e-011 1.2921e-014 -6.02303e-014
Spine  18.1404 1.13019 5.34475
Spine1  -2.49453 6.23705 -13.1611
HEad  26.7734 -4.93827 0.193913
LeftShoulder1  2.52469 -6.74409 -18.843
LeftArm  30.7438 -24.1957 -73.6094
LeftForeArm  45.0376 1.93945 -17.2876
LeftHand  -0.172239 0.587349 4.13353
RightShoulder  2.79034 8.21578 17.7642
RightArm  1.13669 28.0725 91.0251
RightForeArm  110.939 -4.66173 10.9286
RightHand  1.26432 -16.2712 -13.8342
LeftUpLeg  -21.4042 -26.3333 -4.25738
LeftLeg  44.5039 3.84206 4.46885
LeftFoot  -18.4588 0.346299 3.78362
LeftToes  4.52251e-011 4.07896e-011 -5.42348e-012
523
root  -23.4875 36.5323 26.2045 173.811 7.43276 -177.373
RightUpLeg  -88.9943 -17.1314 59.2523
RightLeg  131.222 7.77878 -7.62899
RightFoot  -23.7606 -0.351881 -1.75526
RightToes  6.35937e-011 1.2921e-014 -6.02303e-014
Spine  18.7196 0.820413 4.879
Spine1  -2.7704 5.74895 -12.8508
HEad  26.1494 -5.32985 -0.0281369
LeftShoulder1  2.53526 -6.7342 -18.9833
LeftArm  32.8182 -24.076 -73.1996
LeftForeArm  44.0926 1.39409 -17.4286
LeftHand  -0.413986 -5.28947 4.81008
RightShoulder  2.789 8.33591 17.4805
RightArm  1.17476 28.166 91.3322
RightForeArm  111.094 -4.64885 10.8922
RightHand  1.23243 -16.4055 -13.3546
LeftUpLeg  -21.2757 -27.9706 -4.06756
LeftLeg  44.338 4.03503 4.64404
LeftFoot  -18.5032 0.329759 3.49211
LeftToes  4.52251e-011 4.07896e-011 -5.42348e-012
524
root  -23.3109 36.5233 26.1225 174.053 6.88077 -177.447
RightUpLeg  -88.7887 -16.7744 58.5648
RightLeg  131.422 7.32503 -7.1057
RightFoot  -24.9494 -0.337422 -1.41133
RightToes  6.35937e-011 1.2921e-014 -6.02303e-014
Spine  18.4065 0.680439 4.54484
Spine1  -2.77286 5.47951 -12.7187
HEad  26.2795 -5.71957 -0.554182
LeftShoulder1  2.54762 -6.82858 -18.8612
LeftArm  34.8003 -23.6425 -72.7784
LeftForeArm  42.9873 0.851304 -17.5525
LeftHand  -0.725887 -11.6236 5.36097
RightShoulder  2.80493 8.30666 17.6954
RightArm  1.34775 27.9105 91.5465
RightForeArm  111.608 -4.64751 11.0386
RightHand  1.30307 -18.1303 -12.2425
LeftUpLeg  -21.4466 -29.3109 -3.97579
LeftLeg  44.7135 4.1192 4.79066
LeftFoot  -19.7104 0.341514 3.04885
LeftToes  4.52251e-011 4.07896e-011 -5.42348e-012
525
root  -23.1557 36.4577 25.9958 174.044 6.17171 -177.501
RightUpLeg  -88.816 -16.885 58.3602
RightLeg  131.64 7.14522 -6.86514
RightFoot  -25.5739 -0.347013 -1.39137
RightToes  6.35937e-011 1.2921e-014 -6.02303e-014
Spine  18.1796 0.599087 4.49525
Spine1  -2.90774 5.27836 -12.3735
HEad  26.4902 -6.17279 -1.44593
LeftShoulder1  2.56633 -6.73545 -19.3135
LeftArm  35.7868 -23.4134 -72.6347
LeftForeArm  44.1307 0.473965 -17.5506
LeftHand  -0.979485 -17.4194 5.42802
RightShoulder  2.79765 8.18545 17.9027
RightArm  0.751567 27.5547 91.4453
RightForeArm  113.471 -4.5062 10.6874
RightHand  1.36973 -18.8329 -12.1797
LeftUpLeg  -21.3736 -31.4791 -4.22943
LeftLeg  45.3293 4.42653 5.21904
LeftFoot  -20.1313 0.352311 3.00987
LeftToes  4.52251e-011 4.07896e-011 -5.42348e-012
526
root  -22.9796 36.3563 25.8376 173.963 5.63109 -177.563
RightUpLeg  -88.8112 -17.0457 58.7583
RightLeg  131.8 7.3435 -7.02743
RightFoot  -25.4273 -0.35552 -1.48298
RightToes  6.35937e-011 1.2921e-014 -6.02303e-014
Spine  17.8926 0.742633 4.69647
Spine1  -2.94217 5.35259 -12.1403
HEad  26.1135 -6.69878 -1.95998
LeftShoulder1  2.57289 -6.64047 -19.6472
LeftArm  34.329 -23.3346 -72.6871
LeftForeArm  47.9965 0.718349 -17.374
LeftHand  -1.04457 -24.2819 4.55134
RightShoulder  2.80958 8.18945 18.0063
RightArm  1.16379 27.4901 91.0154
RightForeArm  113.152 -4.58704 11.1128
RightHand  1.35166 -16.8707 -13.9844
LeftUpLeg  -21.2507 -33.3225 -4.5412
LeftLeg  46.2986 4.15767 5.09192
LeftFoot  -21.5052 0.373269 2.74406
LeftToes  4.52251e-011 4.07896e-011 -5.42348e-012
527
root  -22.7682 36.2215 25.6195 174.016 5.6025 -177.781
RightUpLeg  -88.1618 -16.8425 59.1801
RightLeg  131.817 7.41874 -7.09961
RightFoot  -26.4892 -0.318054 -1.04133
RightToes  6.35937e-011 1.2921e-014 -6.02303e-014
Spine  17.2665 1.35062 4.91909
Spine1  -2.96014 5.92477 -12.0574
HEad  25.3977 -7.67267 -1.97794
LeftShoulder1  2.58164 -6.47257 -20.2203
LeftArm  34.9599 -23.2909 -72.625
LeftForeArm  50.0339 0.401366 -17.3361
LeftHand  -1.17877 -31.9333 4.13142
RightShoulder  2.83187 8.27643 18.0166
RightArm  -0.054944 27.5041 90.7477
RightForeArm  113.582 -4.45241 10.3751
RightHand  1.38301 -16.5857 -14.6315
LeftUpLeg  -21.1834 -34.8754 -4.90953
LeftLeg  47.1697 3.15952 4.09856
LeftFoot  -21.9662 0.383857 2.70829
LeftToes  4.52251e-011 4.07896e-011 -5.42348e-012
528
root  -22.5231 36.0909 25.3611 173.991 5.55996 -178.126
RightUpLeg  -87.4421 -16.7271 59.5158
RightLeg  131.676 7.65588 -7.37871
RightFoot  -26.8637 -0.409442 -1.66755
RightToes  6.35937e-011 1.2921e-014 -6.02303e-014
Spine  16.6284 2.11464 5.27503
Spine1  -2.99561 6.68049 -12.2103
HEad  24.2728 -9.0483 -1.79614
LeftShoulder1  2.59665 -6.10193 -21.5031
LeftArm  38.7443 -23.2884 -72.1557
LeftForeArm  50.4317 -0.789867 -17.4094
LeftHand  -1.88615 -39.1891 5.31821
RightShoulder  2.90149 8.4241 18.3278
RightArm  -1.0015 27.4823 90.0957
RightForeArm  114.691 -4.32297 9.8765
RightHand  1.40187 -16.8484 -14.4926
LeftUpLeg  -20.7797 -37.1043 -5.62856
LeftLeg  47.943 1.63445 2.40046
LeftFoot  -22.4314 0.400933 2.74092
LeftToes  4.52251e-011 4.07896e-011 -5.42348e-012
529
root  -22.2589 35.9072 25.0642 173.92 5.23577 -178.521
RightUpLeg  -86.817 -16.8241 60.2226
RightLeg  131.663 8.10006 -7.83537
RightFoot  -27.3002 -0.435041 -1.78255
RightToes  6.35937e-011 1.2921e-014 -6.02303e-014
Spine  16.3003 2.75911 5.67717
Spine1  -3.51264 7.32806 -12.6295
HEad  22.5314 -10.7079 -1.20013
LeftShoulder1  2.56017 -5.71845 -22.3205
LeftArm  38.608 -22.8512 -71.7564
LeftForeArm  53.2172 -0.926182 -17.3227
LeftHand  -2.44249 -46.2181 5.82755
RightShoulder  2.97106 8.60049 18.5651
RightArm  -2.26589 27.6012 89.6846
RightForeArm  115.003 -4.18502 9.09257
RightHand  1.43002 -16.5649 -15.1199
LeftUpLeg  -20.3452 -39.1859 -6.53189
LeftLeg  49.0943 -0.443853 -0.0817329
LeftFoot  -23.2735 0.468187 3.14046
LeftToes  4.52251e-011 4.07896e-011 -5.42348e-012
530
root  -21.9312 35.7192 24.8157 173.734 4.61877 -178.93
RightUpLeg  -86.2244 -16.9482 60.7216
RightLeg  131.515 8.17656 -7.95572
RightFoot  -27.8531 -0.419471 -1.58854
RightToes  6.35937e-011 1.2921e-014 -6.02303e-014
Spine  16.5385 3.45997 5.6647
Spine1  -4.43002 7.85782 -12.6507
HEad  20.267 -12.5997 -0.675116
LeftShoulder1  2.56927 -5.44946 -23.3534
LeftArm  41.9017 -22.4252 -71.2106
LeftForeArm  53.3922 -1.96647 -17.3217
LeftHand  -3.76363 -53.2081 7.60505
RightShoulder  3.02576 8.67452 18.8931
RightArm  -2.94349 27.188 88.8141
RightForeArm  114.421 -4.20118 9.02422
RightHand  1.36305 -16.4251 -14.6356
LeftUpLeg  -19.9386 -40.4991 -7.27325
LeftLeg  50.2505 -1.10274 -0.946338
LeftFoot  -23.7653 0.538129 3.62967
LeftToes  4.52251e-011 4.07896e-011 -5.42348e-012
531
root  -21.5432 35.5125 24.6672 173.611 3.85532 -179.412
RightUpLeg  -86.2164 -16.5763 60.1015
RightLeg  130.99 7.34329 -7.23686
RightFoot  -26.7023 -0.55447 -2.76854
RightToes  6.35937e-011 1.2921e-014 -6.02303e-014
Spine  17.1042 4.12358 5.55661
Spine1  -5.60548 8.37463 -13.1038
HEad  17.2534 -14.6465 0.354901
LeftShoulder1  2.58609 -5.20351 -24.4545
LeftArm  44.2082 -22.3114 -70.5575
LeftForeArm  54.6974 -2.78276 -17.2459
LeftHand  -6.40069 -60.2583 11.0505
RightShoulder  3.07473 8.75598 19.1482
RightArm  -3.79459 26.7843 88.101
RightForeArm  114.339 -4.16165 8.7509
RightHand  1.41249 -16.4844 -15.051
LeftUpLeg  -20.1162 -40.8275 -7.53496
LeftLeg  51.486 -1.41772 -1.42611
LeftFoot  -23.9598 0.590764 4.03789
LeftToes  4.52251e-011 4.07896e-011 -5.42348e-012
532
root  -21.1889 35.2814 24.5125 173.051 3.63531 -179.819
RightUpLeg  -85.9151 -16.3323 59.7272
RightLeg  130.518 8.09213 -8.1573
RightFoot  -27.5092 -0.554029 -2.58654
RightToes  6.35937e-011 1.2921e-014 -6.02303e-014
Spine  17.4216 4.47288 6.39346
Spine1  -5.6706 9.00249 -14.6012
HEad  14.1564 -16.2113 1.1808
LeftShoulder1  2.53408 -4.87508 -25.0663
LeftArm  45.6862 -22.5936 -70.5424
LeftForeArm  56.7191 -3.30363 -17.1506
LeftHand  -10.8607 -66.078 16.588
RightShoulder  3.08541 9.11887 18.437
RightArm  -4.35602 26.9506 88.4388
RightForeArm  114.539 -4.06747 8.21722
RightHand  1.65845 -17.1775 -16.4956
LeftUpLeg  -19.717 -40.6274 -8.06629
LeftLeg  52.895 -1.65473 -1.85025
LeftFoot  -24.7049 0.652069 4.29498
LeftToes  4.52251e-011 4.07896e-011 -5.42348e-012
533
root  -20.8344 35.0288 24.3213 172.264 3.37046 179.453
RightUpLeg  -86.0235 -16.6562 59.5352
RightLeg  130.586 9.80315 -9.93251
RightFoot  -28.3118 -0.649863 -3.06748
RightToes  6.35937e-011 1.2921e-014 -6.02303e-014
Spine  17.4987 4.79075 6.5052
Spine1  -5.88071 9.39299 -15.5491
HEad  12.3788 -17.6852 1.43231
LeftShoulder1  2.53682 -4.76949 -25.525
LeftArm  49.2354 -22.8172 -70.636
LeftForeArm  57.1099 -4.43032 -17.0033
LeftHand  -18.9339 -71.2199 26.054
RightShoulder  3.0893 9.17292 18.3544
RightArm  -4.73191 26.9019 88.0458
RightForeArm  114.462 -4.04763 8.07065
RightHand  2.01533 -19.8589 -16.2561
LeftUpLeg  -18.8239 -40.9952 -9.39799
LeftLeg  54.2508 -1.43466 -1.62854
LeftFoot  -25.3452 0.657133 4.10658
LeftToes  4.52251e-011 4.07896e-011 -5.42348e-012
534
root  -20.5214 34.7543 24.0762 170.829 3.71718 178.968
RightUpLeg  -84.9148 -17.8767 58.6081
RightLeg  131.83 8.61242 -8.30587
RightFoot  -28.4836 -0.691492 -3.30441
RightToes  6.35937e-011 1.2921e-014 -6.02303e-014
Spine  16.9247 5.02512 6.90185
Spine1  -5.19644 9.78262 -16.2739
HEad  11.5163 -19.066 1.62857
LeftShoulder1  2.55186 -4.75979 -25.759
LeftArm  48.1023 -22.8076 -71.0339
LeftForeArm  61.3128 -4.51388 -16.9005
LeftHand  -33.3529 -73.3731 43.3683
RightShoulder  3.1619 9.37215 18.5542
RightArm  -4.83778 26.8689 87.636
RightForeArm  114.784 -4.05289 8.19716
RightHand  1.87077 -20.6638 -14.3921
LeftUpLeg  -16.9271 -40.978 -11.2142
LeftLeg  55.9161 -1.00688 -1.06532
LeftFoot  -26.3722 0.618763 3.4858
LeftToes  4.52251e-011 4.07896e-011 -5.42348e-012
535
root  -20.272 34.4736 23.7811 168.804 4.26265 178.898
RightUpLeg  -83.3737 -20.0587 57.9389
RightLeg  134.485 6.63196 -5.70628
RightFoot  -27.9479 -0.380177 -1.30564
RightToes  6.35937e-011 1.2921e-014 -6.02303e-014
Spine  15.5596 4.7919 6.23495
Spine1  -4.01924 9.35831 -15.0231
HEad  11.8588 -19.8849 2.00531
LeftShoulder1  2.60478 -5.00875 -25.4353
LeftArm  46.351 -21.4554 -70.7256
LeftForeArm  63.0696 -4.25476 -16.9021
LeftHand  -46.6826 -72.2428 60.3802
RightShoulder  3.27133 9.17105 19.9354
RightArm  -6.60823 26.4467 87.1893
RightForeArm  116.991 -3.78917 7.18826
RightHand  1.18847 -20.2253 -9.73713
LeftUpLeg  -14.5993 -38.6582 -12.5185
LeftLeg  57.6801 -1.53271 -2.04858
LeftFoot  -27.5122 0.619135 3.1911
LeftToes  4.52251e-011 4.07896e-011 -5.42348e-012
536
root  -19.8793 34.4275 23.5985 167.654 4.61374 179.576
RightUpLeg  -82.8443 -21.5819 58.5196
RightLeg  136.49 7.00527 -5.62071
RightFoot  -26.4501 -0.381879 -1.52737
RightToes  6.35937e-011 1.2921e-014 -6.02303e-014
Spine  12.7825 4.13192 4.92983
Spine1  -2.08806 8.20004 -12.7299
HEad  12.4191 -22.0998 3.20084
LeftShoulder1  2.6604 -5.53726 -24.1329
LeftArm  46.1357 -19.2439 -70.5556
LeftForeArm  57.4323 -3.75751 -17.0857
LeftHand  -37.52 -73.4991 48.3926
RightShoulder  3.36097 8.72525 21.7748
RightArm  -7.95708 26.0743 87.16
RightForeArm  118.367 -3.59688 6.39014
RightHand  0.748542 -18.0794 -7.44862
LeftUpLeg  -13.3686 -35.5686 -11.2225
LeftLeg  58.3545 -2.73908 -4.2168
LeftFoot  -28.3123 0.76528 3.98409
LeftToes  4.52251e-011 4.07896e-011 -5.42348e-012
